# xmcd
# 
# Track frame offsets:
#     150
#     18535
#     43394
#     65566
#     85172
#     101763
#     120970
#     140669
#     163149
#     179394
#     194247
#     211878
#     232375
#     254559
#     273915
# 
# Disc length: 3915
# 
# Revision: 2
# Processed by: cddbd v1.5.2PL0 Copyright (c) Steve Scherf et al.
# Submitted via: fre:ac v1.0.27
# 
DISCID=ec0f490f
DTITLE=Era - The Essential
DYEAR=2010
DGENRE=New Age
TTITLE0=Ameno (UK Remix)
TTITLE1=Reborn
TTITLE2=Hymne
TTITLE3=Prayers
TTITLE4=The mass
TTITLE5=Devore amante
TTITLE6=Madona
TTITLE7=Dark voices
TTITLE8=Enae volare
TTITLE9=Era
TTITLE10=Divano
TTITLE11=Impera
TTITLE12=Sentence
TTITLE13=The chosen path
TTITLE14=I believe
EXTD=YEAR: 2010
EXTT0=
EXTT1=
EXTT2=
EXTT3=
EXTT4=
EXTT5=
EXTT6=
EXTT7=
EXTT8=
EXTT9=
EXTT10=
EXTT11=
EXTT12=
EXTT13=
EXTT14=
PLAYORDER=
